nColumns=19
nRows=101
DataType=double
version=3
OpenSimVersion=4.1
endheader
time	ground_force_1_vx	ground_force_1_vy	ground_force_1_vz	ground_force_1_px	ground_force_1_py	ground_force_1_pz	ground_force_1_mx	ground_force_1_my	ground_force_1_mz	ground_force_2_vx	ground_force_2_vy	ground_force_2_vz	ground_force_2_px	ground_force_2_py	ground_force_2_pz	ground_force_2_mx	ground_force_2_my	ground_force_2_mz
2.79	0	0	0	-0.000226869	0	-0.00109423	0	0	0	-215.184	1454.03	26.2538	1.1268	0	-0.345433	0	-7.87552	0
2.8	0	0	0	-0.000226869	0	-0.00109423	0	0	0	-244.605	1543.41	-22.7732	1.10581	0	-0.347603	0	-3.76906	0
2.81	0	0	0	-0.000226869	0	-0.00109423	0	0	0	-240.027	1645.76	-55.8975	1.07616	0	-0.349392	-0	0.201419	-0
2.82	0	0	0	-0.000226869	0	-0.00109423	0	0	0	-196.147	1799.29	-48.2842	1.04117	0	-0.346599	-0	2.78666	-0
2.83	0	0	0	-0.000226869	0	-0.00109423	0	0	0	-122.007	1919.08	-26.5291	1.00551	0	-0.344755	-0	3.82957	-0
2.84	0	0	0	-0.000226869	0	-0.00109423	0	0	0	-55.3005	1934.08	-21.8986	0.973921	0	-0.346322	-0	4.0133	-0
2.85	0	0	0	-0.000226869	0	-0.00109423	0	0	0	-8.99317	1862.44	-31.5793	0.945184	0	-0.347828	-0	4.14815	-0
2.86	0	0	0	-0.000226869	0	-0.00109423	0	0	0	38.7579	1748.94	-40.3397	0.915548	0	-0.346619	-0	4.68815	-0
2.87	0	0	0	-0.000226869	0	-0.00109423	0	0	0	86.736	1594.6	-45.7266	0.886109	0	-0.344369	-0	5.6458	-0
2.88	0	0	0	-0.000226869	0	-0.00109423	0	0	0	122.856	1389.75	-50.7908	0.858052	0	-0.342845	-0	6.71085	-0
2.89	0	0	0	-0.000226869	0	-0.00109423	0	0	0	148.743	1145.41	-53.2034	0.827577	0	-0.341727	-0	7.43895	-0
2.9	0	0	0	-0.000226869	0	-0.00109423	0	0	0	166.156	878.384	-49.3998	0.788706	0	-0.340628	-0	7.46561	-0
2.91	0	0	0	-0.000226869	0	-0.00109423	0	0	0	169.29	613.393	-41.0664	0.740785	0	-0.340114	-0	6.66874	-0
2.92	0	0	0	-0.000226869	0	-0.00109423	0	0	0	150.359	387.607	-32.4335	0.697927	0	-0.340338	-0	5.20407	-0
2.93	0	0	0	-0.000226869	0	-0.00109423	0	0	0	112.552	220.154	-24.7609	0.677714	0	-0.340821	-0	3.42511	-0
2.94	0	0	0	-0.000226869	0	-0.00109423	0	0	0	69.1758	110.79	-17.2184	0.692889	0	-0.337515	-0	1.75571	-0
2.95	0	0	0	-0.000226869	0	-0.00109423	0	0	0	32.6486	48.2898	-9.98581	0.726604	0	-0.325445	-0	0.559675	-0
2.96	0	0	0	-0.000226869	0	-0.00109423	0	0	0	10.3364	17.7432	-4.26399	0.696402	0	-0.304887	-0	0.026062	-0
2.97	0	0	0	-0.000226869	0	-0.00109423	0	0	0	0	0	0	-0.000226869	0	-0.00109423	0	0	0
2.98	0	0	0	-0.000226869	0	-0.00109423	0	0	0	0	0	0	-0.000226869	0	-0.00109423	0	0	0
2.99	0	0	0	-0.000226869	0	-0.00109423	0	0	0	0	0	0	-0.000226869	0	-0.00109423	0	0	0
3	0	0	0	-0.000226869	0	-0.00109423	0	0	0	0	0	0	-0.000226869	0	-0.00109423	0	0	0
3.01	0	0	0	-0.000226869	0	-0.00109423	0	0	0	0	0	0	-0.000226869	0	-0.00109423	0	0	0
3.02	0	0	0	-0.000226869	0	-0.00109423	0	0	0	0	0	0	-0.000226869	0	-0.00109423	0	0	0
3.03	0	0	0	-0.000226869	0	-0.00109423	0	0	0	0	0	0	-0.000226869	0	-0.00109423	0	0	0
3.04	0	0	0	-0.000226869	0	-0.00109423	0	0	0	0	0	0	-0.000226869	0	-0.00109423	0	0	0
3.05	-2.46751	10.8834	-5.87561	1.2523	0	-0.252341	0	-2.01061	0	0	0	0	-0.000226869	0	-0.00109423	0	0	0
3.06	-14.5133	45.4691	-16.8896	1.19941	0	-0.276542	-0	0.48279	-0	0	0	0	-0.000226869	0	-0.00109423	0	0	0
3.07	-53.2926	170.772	-36.6603	1.17356	0	-0.282075	-0	4.12667	-0	0	0	0	-0.000226869	0	-0.00109423	0	0	0
3.08	-117.82	449.42	-61.4978	1.16992	0	-0.285186	-0	7.82407	-0	0	0	0	-0.000226869	0	-0.00109423	0	0	0
3.09	-145.969	810.406	-77.4525	1.15551	0	-0.289971	-0	10.2445	-0	0	0	0	-0.000226869	0	-0.00109423	0	0	0
3.1	-124.644	1117.98	-69.8424	1.12189	0	-0.296557	-0	10.4955	-0	0	0	0	-0.000226869	0	-0.00109423	0	0	0
3.11	-149.74	1337.64	-41.1135	1.08703	0	-0.301729	-0	8.6175	-0	0	0	0	-0.000226869	0	-0.00109423	0	0	0
3.12	-199.95	1494.9	-12.1995	1.05761	0	-0.304585	-0	5.5103	-0	0	0	0	-0.000226869	0	-0.00109423	0	0	0
3.13	-195.145	1645.22	0.25748	1.02262	0	-0.30695	-0	2.33748	-0	0	0	0	-0.000226869	0	-0.00109423	0	0	0
3.14	-140.665	1788.76	1.76277	0.983956	0	-0.308069	0	-0.107542	0	0	0	0	-0.000226869	0	-0.00109423	0	0	0
3.15	-80.8555	1872.41	5.34393	0.949428	0	-0.30782	0	-1.63029	0	0	0	0	-0.000226869	0	-0.00109423	0	0	0
3.16	-26.3812	1879.47	13.2646	0.918022	0	-0.307904	0	-2.4552	0	0	0	0	-0.000226869	0	-0.00109423	0	0	0
3.17	31.2131	1823.36	22.8028	0.886063	0	-0.308664	0	-2.91542	0	0	0	0	-0.000226869	0	-0.00109423	0	0	0
3.18	86.9522	1711.21	32.9701	0.852863	0	-0.309486	0	-3.21887	0	0	0	0	-0.000226869	0	-0.00109423	0	0	0
3.19	134.528	1542	41.7778	0.818492	0	-0.310594	0	-3.36262	0	0	0	0	-0.000226869	0	-0.00109423	0	0	0
3.2	175.848	1313.39	46.4692	0.781822	0	-0.31196	0	-3.19831	0	0	0	0	-0.000226869	0	-0.00109423	0	0	0
3.21	210.691	1036.51	45.3306	0.740373	0	-0.313302	0	-2.58297	0	0	0	0	-0.000226869	0	-0.00109423	0	0	0
3.22	222.097	750.121	38.896	0.696702	0	-0.31435	0	-1.51041	0	0	0	0	-0.000226869	0	-0.00109423	0	0	0
3.23	194.983	501.019	30.577	0.661147	0	-0.314189	0	-0.144328	0	0	0	0	-0.000226869	0	-0.00109423	0	0	0
3.24	146.031	308.647	23.3626	0.637664	0	-0.312105	-0	1.25091	-0	0	0	0	-0.000226869	0	-0.00109423	0	0	0
3.25	95.7645	170.25	17.2464	0.616532	0	-0.30965	-0	2.41443	-0	0	0	0	-0.000226869	0	-0.00109423	0	0	0
3.26	51.5381	79.3716	11.4946	0.591071	0	-0.308495	-0	3.16233	-0	0	0	0	-0.000226869	0	-0.00109423	0	0	0
3.27	19.4903	29.8885	6.49654	0.631468	0	-0.309525	-0	3.42129	-0	0	0	0	-0.000226869	0	-0.00109423	0	0	0
3.28	4.83119	10.5738	3.13643	1.01834	0	-0.307165	-0	3.23929	-0	0	0	0	-0.000226869	0	-0.00109423	0	0	0
3.29	0	0	0	-0.000226869	0	-0.00109423	0	0	0	0	0	0	-0.000226869	0	-0.00109423	0	0	0
3.3	0	0	0	-0.000226869	0	-0.00109423	0	0	0	0	0	0	-0.000226869	0	-0.00109423	0	0	0
3.31	0	0	0	-0.000226869	0	-0.00109423	0	0	0	0	0	0	-0.000226869	0	-0.00109423	0	0	0
3.32	0	0	0	-0.000226869	0	-0.00109423	0	0	0	0	0	0	-0.000226869	0	-0.00109423	0	0	0
3.33	0	0	0	-0.000226869	0	-0.00109423	0	0	0	0	0	0	-0.000226869	0	-0.00109423	0	0	0
3.34	0	0	0	-0.000226869	0	-0.00109423	0	0	0	0	0	0	-0.000226869	0	-0.00109423	0	0	0
3.35	0	0	0	-0.000226869	0	-0.00109423	0	0	0	-3.08276	10.0869	-0.616109	1.16407	0	-0.321669	0	-0.310551	0
3.36	0	0	0	-0.000226869	0	-0.00109423	0	0	0	-12.3614	41.6197	0.188207	1.10506	0	-0.375599	0	-2.09405	0
3.37	0	0	0	-0.000226869	0	-0.00109423	0	0	0	-36.8934	161.591	5.69576	1.12629	0	-0.381764	0	-4.36747	0
3.38	0	0	0	-0.000226869	0	-0.00109423	0	0	0	-75.0607	456.608	20.5331	1.13533	0	-0.376175	0	-6.56462	0
3.39	0	0	0	-0.000226869	0	-0.00109423	0	0	0	-111.196	889.079	41.6909	1.13082	0	-0.367273	0	-7.9521	0
3.4	0	0	0	-0.000226869	0	-0.00109423	0	0	0	-148.912	1219.61	49.6817	1.11897	0	-0.360776	0	-8.05475	0
3.41	0	0	0	-0.000226869	0	-0.00109423	0	0	0	-200.044	1334.09	28.2349	1.10069	0	-0.362471	0	-7.06993	0
3.42	0	0	0	-0.000226869	0	-0.00109423	0	0	0	-245.244	1388.58	-1.81731	1.07472	0	-0.369583	0	-5.83439	0
3.43	0	0	0	-0.000226869	0	-0.00109423	0	0	0	-244.385	1526.14	-4.34714	1.04023	0	-0.371029	0	-5.19735	0
3.44	0	0	0	-0.000226869	0	-0.00109423	0	0	0	-189.24	1714.7	17.3443	1.00064	0	-0.36782	0	-5.3341	0
3.45	0	0	0	-0.000226869	0	-0.00109423	0	0	0	-118.404	1837.79	29.4655	0.963903	0	-0.367721	0	-5.68436	0
3.46	0	0	0	-0.000226869	0	-0.00109423	0	0	0	-64.7293	1855.09	20.395	0.930945	0	-0.370524	0	-5.48062	0
3.47	0	0	0	-0.000226869	0	-0.00109423	0	0	0	-15.1909	1810.4	5.8474	0.895835	0	-0.371479	0	-4.2552	0
3.48	0	0	0	-0.000226869	0	-0.00109423	0	0	0	44.8108	1724.33	-4.82752	0.858113	0	-0.369813	0	-1.98604	0
3.49	0	0	0	-0.000226869	0	-0.00109423	0	0	0	108.619	1579.52	-16.2086	0.820473	0	-0.367967	-0	0.974149	-0
3.5	0	0	0	-0.000226869	0	-0.00109423	0	0	0	174.547	1376.44	-30.4118	0.780472	0	-0.36687	-0	4.01471	-0
3.51	0	0	0	-0.000226869	0	-0.00109423	0	0	0	230.906	1144.35	-41.8576	0.73786	0	-0.365556	-0	6.44301	-0
3.52	0	0	0	-0.000226869	0	-0.00109423	0	0	0	248.269	903.956	-45.0254	0.69818	0	-0.363744	-0	7.72767	-0
3.53	0	0	0	-0.000226869	0	-0.00109423	0	0	0	226.676	664.612	-40.8328	0.662376	0	-0.362332	-0	7.6938	-0
3.54	0	0	0	-0.000226869	0	-0.00109423	0	0	0	185.523	443.228	-34.0353	0.628629	0	-0.362453	-0	6.5483	-0
3.55	0	0	0	-0.000226869	0	-0.00109423	0	0	0	136.757	260.853	-26.792	0.598654	0	-0.363497	-0	4.7438	-0
3.56	0	0	0	-0.000226869	0	-0.00109423	0	0	0	82.7488	130.087	-18.5808	0.581055	0	-0.363071	-0	2.79241	-0
3.57	0	0	0	-0.000226869	0	-0.00109423	0	0	0	36.6971	53.7368	-10.3611	0.605728	0	-0.354003	-0	1.11167	-0
3.58	0	0	0	-0.000226869	0	-0.00109423	0	0	0	10.2627	19.9699	-4.35979	0.762428	0	-0.322987	0	-0.076578	0
3.59	0	0	0	-0.000226869	0	-0.00109423	0	0	0	0	0	0	-0.000226869	0	-0.00109423	0	0	0
3.6	0	0	0	-0.000226869	0	-0.00109423	0	0	0	0	0	0	-0.000226869	0	-0.00109423	0	0	0
3.61	0	0	0	-0.000226869	0	-0.00109423	0	0	0	0	0	0	-0.000226869	0	-0.00109423	0	0	0
3.62	0	0	0	-0.000226869	0	-0.00109423	0	0	0	0	0	0	-0.000226869	0	-0.00109423	0	0	0
3.63	0	0	0	-0.000226869	0	-0.00109423	0	0	0	0	0	0	-0.000226869	0	-0.00109423	0	0	0
3.64	0	0	0	-0.000226869	0	-0.00109423	0	0	0	0	0	0	-0.000226869	0	-0.00109423	0	0	0
3.65	0	0	0	-0.000226869	0	-0.00109423	0	0	0	0	0	0	-0.000226869	0	-0.00109423	0	0	0
3.66	-5.29471	18.7412	-6.39474	1.09684	0	-0.286513	-0	0.831482	-0	0	0	0	-0.000226869	0	-0.00109423	0	0	0
3.67	-23.9486	74.7657	-16.171	1.17387	0	-0.305046	-0	3.22312	-0	0	0	0	-0.000226869	0	-0.00109423	0	0	0
3.68	-69.1893	246.426	-29.5105	1.16737	0	-0.309769	-0	5.67375	-0	0	0	0	-0.000226869	0	-0.00109423	0	0	0
3.69	-119.329	552.317	-38.6316	1.15537	0	-0.313032	-0	7.3901	-0	0	0	0	-0.000226869	0	-0.00109423	0	0	0
3.7	-120.274	852.957	-33.328	1.13416	0	-0.317984	-0	7.79853	-0	0	0	0	-0.000226869	0	-0.00109423	0	0	0
3.71	-114.176	1032.61	-13.4881	1.10351	0	-0.323368	-0	6.89091	-0	0	0	0	-0.000226869	0	-0.00109423	0	0	0
3.72	-164.885	1137.2	7.65911	1.07585	0	-0.327453	-0	5.21782	-0	0	0	0	-0.000226869	0	-0.00109423	0	0	0
3.73	-206.4	1263.65	18.2045	1.046	0	-0.330048	-0	3.51544	-0	0	0	0	-0.000226869	0	-0.00109423	0	0	0
3.74	-184.21	1448.9	20.2476	1.00549	0	-0.331203	-0	2.27015	-0	0	0	0	-0.000226869	0	-0.00109423	0	0	0
3.75	-124.806	1638.96	23.5796	0.962553	0	-0.330749	-0	1.53847	-0	0	0	0	-0.000226869	0	-0.00109423	0	0	0
3.76	-68.0581	1762.03	31.2134	0.926068	0	-0.330351	-0	1.06558	-0	0	0	0	-0.000226869	0	-0.00109423	0	0	0
3.77	-16.2504	1808.36	39.7147	0.893419	0	-0.330671	-0	0.520364	-0	0	0	0	-0.000226869	0	-0.00109423	0	0	0
3.78	39.4356	1797.61	47.7011	0.860398	0	-0.33098	0	-0.31025	0	0	0	0	-0.000226869	0	-0.00109423	0	0	0
3.79	93.8309	1736.18	55.0512	0.827021	0	-0.331065	0	-1.41471	0	0	0	0	-0.000226869	0	-0.00109423	0	0	0
